<?xml version="1.0" encoding="utf-8"?>
<!-- Generator: Adobe Illustrator 23.0.2, SVG Export Plug-In . SVG Version: 6.00 Build 0)  -->
<svg version="1.1" id="Слой_1" xmlns="http://www.w3.org/2000/svg" xmlns:xlink="http://www.w3.org/1999/xlink" x="0px" y="0px"
	 viewBox="0 0 25 25" enable-background="new 0 0 25 25" xml:space="preserve">
<g>
	<path fill="#00009E" d="M6.122,10.168c0.292,0,0.584-0.002,0.875,0.003c0.024,0,0.059,0.04,0.071,0.068
		c0.314,0.799,0.625,1.598,0.936,2.397c0.039,0.1,0.08,0.199,0.13,0.326c0.099-0.263,0.187-0.497,0.274-0.731
		c0.245-0.658,0.491-1.315,0.733-1.974c0.025-0.068,0.058-0.093,0.132-0.092c0.251,0.005,0.502,0,0.754,0.004
		c0.029,0,0.057,0.034,0.086,0.052c-0.025,0.02-0.047,0.053-0.075,0.058c-0.253,0.044-0.312,0.102-0.33,0.356
		c-0.009,0.125-0.009,0.251-0.009,0.376c-0.001,0.716-0.001,1.433,0,2.149c0,0.085,0.004,0.17,0.012,0.254
		c0.018,0.205,0.073,0.26,0.275,0.307c0.045,0.01,0.131-0.017,0.124,0.067c-0.008,0.088-0.091,0.047-0.139,0.047
		c-0.356,0.004-0.713,0.003-1.069,0c-0.034,0-0.068-0.03-0.102-0.046c0.032-0.021,0.062-0.053,0.096-0.06
		c0.247-0.049,0.303-0.102,0.315-0.358c0.012-0.24,0.009-0.482,0.009-0.723c0.001-0.591,0-1.181,0-1.772c0-0.039,0-0.078,0-0.117
		c-0.008-0.001-0.017-0.003-0.025-0.004c-0.043,0.111-0.088,0.222-0.13,0.333c-0.338,0.884-0.674,1.768-1.013,2.651
		c-0.014,0.036-0.049,0.064-0.074,0.096c-0.022-0.031-0.052-0.059-0.065-0.093c-0.365-0.931-0.729-1.863-1.094-2.795
		c-0.009-0.024-0.023-0.045-0.049-0.095c-0.003,0.058-0.006,0.086-0.006,0.114c0,0.696-0.001,1.392,0.001,2.088
		c0,0.108,0.013,0.217,0.024,0.324c0.021,0.201,0.126,0.325,0.333,0.348c0.058,0.006,0.101,0.023,0.073,0.102
		c-0.023,0.003-0.049,0.009-0.075,0.009c-0.309,0.001-0.618,0.002-0.927-0.002c-0.032,0-0.064-0.028-0.095-0.043
		c0.028-0.022,0.052-0.056,0.084-0.063c0.278-0.065,0.332-0.123,0.361-0.411c0.009-0.088,0.016-0.176,0.016-0.264
		c0.001-0.76,0.001-1.521,0.001-2.281c0-0.044,0-0.088-0.004-0.132c-0.025-0.266-0.091-0.334-0.359-0.36
		C6.126,10.277,6.092,10.258,6.122,10.168z"/>
	<path fill="#00009E" d="M5.202,13.711c0,0.044,0,0.077,0,0.119c-0.515,0-1.028,0-1.548,0c0-0.038,0-0.073,0-0.11
		c0.083-0.015,0.163-0.027,0.242-0.045c0.139-0.031,0.192-0.085,0.173-0.227c-0.021-0.157-0.06-0.313-0.109-0.463
		c-0.067-0.21-0.153-0.413-0.226-0.621c-0.02-0.057-0.045-0.08-0.108-0.08c-0.479,0.002-0.957,0.002-1.436,0
		c-0.055,0-0.086,0.013-0.104,0.07c-0.093,0.298-0.191,0.594-0.285,0.891c-0.012,0.038-0.017,0.079-0.022,0.12
		c-0.018,0.167,0.055,0.276,0.217,0.317c0.062,0.016,0.125,0.025,0.194,0.038c0.002,0.034,0.004,0.067,0.006,0.11
		c-0.402,0-0.8,0-1.2,0c-0.031-0.074-0.014-0.116,0.072-0.136c0.148-0.035,0.255-0.131,0.312-0.27
		c0.148-0.361,0.296-0.721,0.43-1.087c0.393-1.077,0.779-2.156,1.17-3.233c0.013-0.037,0.04-0.083,0.072-0.096
		c0.061-0.024,0.092,0.015,0.115,0.077c0.184,0.5,0.371,0.998,0.558,1.497c0.338,0.902,0.677,1.803,1.014,2.705
		C4.821,13.507,4.933,13.694,5.202,13.711z M2.927,10.056c-0.009,0.001-0.019,0.002-0.028,0.003
		c-0.226,0.641-0.452,1.282-0.68,1.929c0.472,0,0.927,0,1.397,0C3.384,11.336,3.156,10.696,2.927,10.056z"/>
	<path fill="#00009E" d="M0.838,14.366c0-0.051,0-0.091,0-0.14c7.759,0,15.514,0,23.276,0c0,0.046,0,0.088,0,0.14
		C16.358,14.366,8.603,14.366,0.838,14.366z"/>
	<path fill="#00009E" d="M24.056,10.119c0.015,0.406,0.029,0.811,0.044,1.216c-0.076,0.029-0.105,0.01-0.131-0.063
		c-0.063-0.171-0.121-0.349-0.217-0.502c-0.362-0.575-1.12-0.602-1.537-0.066c-0.202,0.26-0.303,0.56-0.341,0.881
		c-0.053,0.441-0.058,0.882,0.109,1.305c0.133,0.337,0.341,0.615,0.699,0.735c0.4,0.134,0.763,0.035,1.089-0.215
		c0.107-0.082,0.201-0.181,0.307-0.278c0.026,0.029,0.052,0.059,0.085,0.096c-0.332,0.447-0.749,0.726-1.324,0.703
		c-0.718-0.029-1.271-0.491-1.46-1.23c-0.151-0.587-0.122-1.165,0.154-1.715c0.371-0.738,1.111-1.046,1.9-0.796
		c0.081,0.026,0.162,0.051,0.242,0.076c0.113,0.035,0.197,0,0.261-0.098c0.021-0.032,0.058-0.052,0.088-0.078
		C24.034,10.1,24.045,10.11,24.056,10.119z"/>
	<path fill="#00009E" d="M14.452,13.839c-0.264,0-0.525,0-0.786,0c-0.102,0-0.204,0.004-0.305-0.002
		c-0.032-0.002-0.063-0.028-0.095-0.043c0.028-0.021,0.053-0.047,0.084-0.061c0.027-0.012,0.06-0.011,0.09-0.017
		c0.127-0.025,0.163-0.065,0.15-0.195c-0.009-0.09-0.029-0.181-0.057-0.268c-0.061-0.183-0.127-0.365-0.199-0.545
		c-0.012-0.03-0.061-0.064-0.093-0.065c-0.363-0.005-0.727-0.005-1.09,0c-0.032,0-0.082,0.036-0.092,0.066
		c-0.075,0.211-0.143,0.424-0.211,0.637c-0.013,0.042-0.02,0.086-0.024,0.13c-0.012,0.132,0.048,0.212,0.177,0.242
		c0.026,0.006,0.056,0.004,0.079,0.017c0.025,0.013,0.043,0.039,0.064,0.059c-0.022,0.015-0.043,0.042-0.065,0.042
		c-0.285,0.003-0.57,0.002-0.89,0.002c0.029-0.048,0.042-0.096,0.065-0.102c0.16-0.041,0.244-0.154,0.298-0.296
		c0.191-0.504,0.381-1.009,0.567-1.515c0.212-0.579,0.419-1.161,0.631-1.741c0.011-0.031,0.048-0.052,0.074-0.078
		c0.025,0.026,0.062,0.048,0.074,0.079c0.393,1.044,0.783,2.09,1.174,3.134c0.024,0.063,0.053,0.125,0.079,0.187
		c0.046,0.114,0.123,0.195,0.248,0.219C14.457,13.738,14.48,13.766,14.452,13.839z M13.24,12.407
		c-0.18-0.504-0.355-0.993-0.529-1.482c-0.008,0-0.016,0-0.024,0c-0.173,0.49-0.346,0.981-0.522,1.482
		C12.526,12.407,12.873,12.407,13.24,12.407z"/>
	<path fill="#00009E" d="M16.585,10.391c-0.004,0.043-0.006,0.06-0.006,0.076c0.001,0.944,0.002,1.888,0.003,2.831
		c0,0.024,0,0.048,0.002,0.071c0.025,0.269,0.068,0.315,0.336,0.359c0.023,0.004,0.051,0,0.07,0.011
		c0.019,0.011,0.037,0.036,0.04,0.057c0.002,0.012-0.025,0.031-0.042,0.041c-0.01,0.006-0.027,0.002-0.04,0.002
		c-0.407,0-0.815,0-1.222,0c-0.016,0-0.033-0.003-0.054-0.004c0-0.03,0-0.056,0-0.084c0.008-0.004,0.017-0.01,0.026-0.011
		c0.363-0.055,0.412-0.103,0.413-0.47c0.004-0.93,0.002-1.861,0.002-2.791c0-0.02-0.003-0.04-0.005-0.07
		c-0.227-0.003-0.45-0.027-0.666,0.05c-0.113,0.04-0.188,0.123-0.226,0.233c-0.038,0.109-0.066,0.22-0.096,0.332
		c-0.023,0.086-0.021,0.086-0.112,0.077c0-0.307,0-0.613,0-0.926c0.895,0,1.773,0,2.673,0c0,0.305,0,0.611,0,0.927
		c-0.06,0.025-0.091,0.003-0.109-0.078c-0.026-0.119-0.067-0.234-0.107-0.349c-0.047-0.132-0.145-0.219-0.283-0.236
		C16.987,10.413,16.791,10.406,16.585,10.391z"/>
	<path fill="#00009E" d="M18.792,10.174c0.462,0,0.915,0,1.367,0c0.029,0.076,0.005,0.107-0.07,0.109
		c-0.04,0.001-0.081,0.009-0.12,0.018c-0.158,0.038-0.211,0.094-0.233,0.254c-0.01,0.07-0.019,0.142-0.019,0.213
		c-0.001,0.828-0.001,1.657-0.001,2.485c0,0.024,0.002,0.047,0.003,0.071c0.013,0.308,0.06,0.361,0.363,0.408
		c0.01,0.002,0.023-0.001,0.03,0.004c0.021,0.016,0.039,0.036,0.058,0.054c-0.02,0.016-0.038,0.036-0.061,0.048
		c-0.013,0.007-0.033,0.002-0.05,0.002c-0.387,0-0.774,0-1.161,0c-0.033,0-0.067,0-0.1,0c-0.03-0.071-0.011-0.096,0.058-0.107
		c0.328-0.05,0.36-0.082,0.38-0.412c0.011-0.179,0.006-0.36,0.007-0.539c0.001-0.642,0.001-1.283,0-1.925
		c0-0.068-0.003-0.136-0.008-0.203c-0.02-0.27-0.091-0.343-0.36-0.371C18.783,10.273,18.783,10.273,18.792,10.174z"/>
	<path fill="#00009E" d="M3.139,14.871c0.107-0.03,0.164-0.011,0.19,0.103c0.035,0.157,0.092,0.308,0.152,0.459
		c0-0.185,0-0.37,0-0.564c0.056,0,0.107,0,0.166,0c0,0.369,0,0.737,0,1.103c-0.152,0.03-0.151,0.03-0.193-0.109
		C3.408,15.709,3.36,15.554,3.3,15.401c0,0.19,0,0.38,0,0.578c-0.056,0-0.104,0-0.161,0C3.139,15.609,3.139,15.242,3.139,14.871z"/>
	<path fill="#00009E" d="M16.676,15.976c-0.182,0.023-0.194,0.012-0.195-0.161c0-0.102-0.002-0.203-0.004-0.305
		c0-0.006-0.006-0.012-0.012-0.024c-0.046,0-0.094,0-0.157,0c0,0.166,0,0.327,0,0.493c-0.062,0-0.111,0-0.167,0
		c0-0.369,0-0.734,0-1.125c0.143,0.007,0.287,0.007,0.428,0.026c0.033,0.004,0.084,0.072,0.083,0.108
		c-0.005,0.139,0.048,0.284-0.035,0.416c-0.003,0.005-0.006,0.014-0.004,0.018c0.088,0.149,0.024,0.312,0.045,0.467
		C16.662,15.917,16.669,15.943,16.676,15.976z M16.481,15.355c0-0.086,0-0.166,0-0.247c0-0.15-0.014-0.16-0.166-0.119
		c0,0.12,0,0.24,0,0.365C16.371,15.355,16.419,15.355,16.481,15.355z"/>
	<path fill="#00009E" d="M5.766,14.864c0.131,0,0.259-0.006,0.387,0.002c0.085,0.005,0.13,0.058,0.13,0.151
		c-0.003,0.268-0.003,0.536,0,0.804c0.001,0.104-0.054,0.154-0.145,0.161c-0.121,0.009-0.243,0.002-0.371,0.002
		C5.766,15.608,5.766,15.24,5.766,14.864z M6.103,15.865c0-0.284,0-0.558,0-0.832c0-0.078-0.058-0.056-0.102-0.061
		c-0.061-0.006-0.074,0.026-0.073,0.08c0.002,0.244,0,0.488,0.001,0.732c0,0.026,0.006,0.052,0.009,0.08
		C5.992,15.865,6.039,15.865,6.103,15.865z"/>
	<path fill="#00009E" d="M8.555,14.875c0,0.325,0,0.653,0,0.987c0.063,0,0.115,0,0.177,0c0-0.33,0-0.658,0-0.994
		c0.059,0,0.107,0,0.166,0c0.002,0.037,0.006,0.073,0.006,0.109c0.001,0.248,0,0.495,0,0.743c0,0.218-0.15,0.326-0.363,0.261
		c-0.114-0.035-0.158-0.093-0.158-0.216c-0.001-0.258,0-0.516,0-0.774C8.383,14.846,8.391,14.84,8.555,14.875z"/>
	<path fill="#00009E" d="M24.134,15.146c-0.036,0.002-0.063,0.004-0.089,0.004c-0.02,0-0.04-0.003-0.064-0.005
		c-0.004-0.027-0.012-0.049-0.01-0.071c0.007-0.071-0.013-0.103-0.094-0.103c-0.089,0-0.09,0.047-0.086,0.11
		c0.001,0.014,0,0.027,0,0.041c0.001,0.071-0.022,0.161,0.012,0.207c0.029,0.039,0.126,0.027,0.193,0.037
		c0.11,0.017,0.144,0.057,0.145,0.168c0,0.061,0,0.122,0,0.183c0,0.22-0.147,0.329-0.36,0.267c-0.14-0.04-0.185-0.123-0.151-0.286
		c0.048,0,0.097,0,0.153,0c0.005,0.056,0.009,0.108,0.014,0.165c0.054,0,0.104,0,0.171,0c0-0.113,0.003-0.227-0.003-0.34
		c-0.001-0.015-0.041-0.039-0.065-0.041c-0.284-0.026-0.284-0.025-0.285-0.309c0-0.014,0-0.027,0-0.041
		c-0.004-0.097-0.008-0.193,0.1-0.244c0.115-0.054,0.23-0.054,0.341,0.007C24.159,14.951,24.149,15.043,24.134,15.146z"/>
	<path fill="#00009E" d="M11.025,15.696c0.053,0,0.099,0,0.151,0c0.004,0.057,0.008,0.109,0.012,0.167c0.055,0,0.104,0,0.164,0
		c0-0.122,0-0.245,0-0.385c-0.064,0-0.128,0.004-0.19-0.001c-0.109-0.008-0.149-0.053-0.151-0.162
		c-0.001-0.085,0.002-0.17-0.001-0.254c-0.004-0.1,0.044-0.173,0.136-0.186c0.093-0.013,0.194-0.009,0.285,0.016
		c0.09,0.024,0.136,0.135,0.094,0.216c-0.017,0.033-0.089,0.038-0.138,0.057c-0.022-0.077-0.025-0.143-0.059-0.183
		c-0.019-0.023-0.087-0.004-0.139-0.004c0,0.13,0,0.25,0,0.386c0.064,0,0.124-0.004,0.184,0.001c0.122,0.01,0.159,0.053,0.159,0.175
		c0,0.088,0.008,0.177-0.003,0.264c-0.006,0.048-0.035,0.104-0.071,0.135c-0.09,0.076-0.278,0.071-0.374,0.002
		C11.013,15.89,10.998,15.83,11.025,15.696z"/>
	<path fill="#00009E" d="M21.541,14.973c-0.081,0-0.165,0.002-0.249-0.001c-0.059-0.002-0.087,0.016-0.085,0.08
		c0.004,0.097,0.001,0.195,0.001,0.305c0.089,0,0.169,0,0.257,0c0.002,0.044,0.004,0.076,0.007,0.122
		c-0.069,0-0.129,0.002-0.189-0.001c-0.049-0.002-0.076,0.013-0.075,0.068c0.002,0.101,0.001,0.202,0.001,0.317
		c0.117,0,0.226,0,0.342,0c0,0.045,0,0.077,0,0.119c-0.129,0-0.254,0.007-0.378-0.002c-0.091-0.007-0.143-0.063-0.141-0.165
		c0.003-0.261,0-0.522,0.001-0.783c0-0.119,0.045-0.167,0.163-0.173c0.091-0.005,0.183,0.002,0.274-0.002
		C21.552,14.855,21.574,14.888,21.541,14.973z"/>
	<path fill="#00009E" d="M14.093,14.966c-0.174,0.016-0.174,0.016-0.174,0.185c0,0.237,0,0.475,0,0.712c0,0.037,0,0.073,0,0.117
		c-0.06,0-0.108,0-0.171,0c0-0.123,0-0.244,0-0.365c0-0.173-0.006-0.346,0.002-0.519c0.005-0.098-0.026-0.138-0.124-0.123
		c-0.016,0.002-0.032-0.003-0.053-0.005c0-0.034,0-0.063,0-0.1c0.169,0,0.337,0,0.514,0C14.089,14.898,14.091,14.929,14.093,14.966z
		"/>
	<path fill="#00009E" d="M1.022,15.98c-0.057,0-0.107,0-0.17,0c0-0.062,0-0.119,0-0.175c0-0.268,0-0.536,0-0.804
		c0-0.156,0.002-0.157,0.17-0.131C1.022,15.236,1.022,15.603,1.022,15.98z"/>
	<path fill="#00009E" d="M18.923,15.982c-0.058,0-0.102,0-0.154,0c0-0.37,0-0.736,0-1.113c0.048,0,0.099,0,0.154,0
		C18.923,15.24,18.923,15.607,18.923,15.982z"/>
</g>
<g>
</g>
<g>
</g>
<g>
</g>
<g>
</g>
<g>
</g>
<g>
</g>
<g>
</g>
<g>
</g>
<g>
</g>
<g>
</g>
<g>
</g>
<g>
</g>
<g>
</g>
<g>
</g>
<g>
</g>
</svg>
