<?xml version="1.0" encoding="UTF-8"?>
<svg width="30px" height="30px" viewBox="0 0 30 30" version="1.1" xmlns="http://www.w3.org/2000/svg" xmlns:xlink="http://www.w3.org/1999/xlink">
    <!-- Generator: Sketch 51.3 (57544) - http://www.bohemiancoding.com/sketch -->
    <title>Microgaming</title>
    <desc>Created with Sketch.</desc>
    <defs>
        <linearGradient x1="20.038931%" y1="93.2170912%" x2="75.2935233%" y2="6.85209182%" id="linearGradient-1">
            <stop stop-color="#00B563" offset="0%"></stop>
            <stop stop-color="#00A9A3" offset="53.3101517%"></stop>
            <stop stop-color="#009FDA" offset="100%"></stop>
        </linearGradient>
    </defs>
    <g id="Microgaming" stroke="none" stroke-width="1" fill="none" fill-rule="evenodd">
        <path d="M6.77987258,19.4086895 C7.31199927,18.5364044 7.8519314,17.6678524 8.3539676,16.7781465 C9.11539294,15.4290515 9.84604905,14.0627619 10.593221,12.7055221 C10.6384699,12.6232822 10.713583,12.557332 10.8290807,12.4185311 C10.8640355,12.576789 10.8938997,12.6508841 10.8946916,12.7253184 C10.9002346,13.229504 10.8954834,13.7338026 10.9017052,14.237875 C10.9115468,15.0296171 10.9029495,15.8226035 10.9477459,16.6124225 C10.9917504,17.387875 11.0563432,18.1658162 11.177497,18.9322189 C11.3315694,19.9075583 11.5566825,20.8715854 11.9560038,21.7830108 C12.2916373,22.5491872 12.798764,23.1808614 13.5720671,23.5188705 C14.2279495,23.8055221 14.9053251,23.7321058 15.5519314,23.4127619 C16.246954,23.0696623 16.782135,22.5305221 17.2251214,21.9238479 C17.8486509,21.0700017 18.4578138,20.1956804 18.9712753,19.2735085 C19.7320219,17.907332 20.4030626,16.4912687 21.1141486,15.0973773 C21.1550988,15.0170605 21.2114337,14.9445492 21.3018183,14.8046171 C21.4346237,15.0676261 21.5622255,15.2775809 21.6506871,15.5028071 C22.057135,16.5370832 22.6130174,17.4895718 23.2750083,18.3738479 C23.6455966,18.8689836 24.0925423,19.3084632 24.5218409,19.7569927 C24.6304382,19.8704542 24.7850762,20.03697 24.9735377,19.8403637 C25.1390355,19.667513 25.071049,19.5034859 24.9472934,19.3436442 C24.2500083,18.441608 23.804307,17.4106126 23.4808907,16.332332 C23.2409585,15.5327845 23.0603024,14.7124225 22.903402,13.8917212 C22.7540807,13.1120832 22.6634699,12.3207936 22.5596237,11.5330108 C22.4962753,11.0522415 22.1199178,10.6153637 21.6906192,10.5580108 C21.0511395,10.4727166 20.6437866,10.7033727 20.4101893,11.2118569 C19.6662979,12.8310877 18.9342843,14.4568795 18.139488,16.0512234 C17.5985377,17.1360651 16.9759133,18.1817664 16.3601893,19.2274678 C15.9306644,19.9568795 15.4491033,20.6560877 14.7899404,21.2071058 C14.479307,21.4667212 14.3695785,21.4711329 14.1991033,21.1075583 C13.9717278,20.6229429 13.7760264,20.1145718 13.6436735,19.5965854 C13.4893748,18.993418 13.3858681,18.3724904 13.319126,17.7530334 C13.2389223,17.0063139 13.2198047,16.2529203 13.1755739,15.5023546 C13.1468409,15.0151374 13.0916373,14.5274678 13.0985377,14.0407031 C13.1207097,12.4979429 13.1495558,10.9549565 13.2092843,9.41321437 C13.2472934,8.43142704 13.3649404,7.45280713 13.40804,6.4710198 C13.4384699,5.7781465 12.748764,5.30529582 12.1569088,5.38414197 C11.6747821,5.44850849 11.3910717,5.79375736 11.1753477,6.20654016 C10.3807776,7.72599718 9.61731602,9.26321437 8.77274588,10.7543908 C8.00453321,12.1108388 7.16369611,13.4274678 6.32240651,14.7409293 C5.82749234,15.5134653 4.56238951,17.2122791 3.42595246,18.7473188 C3.14814189,17.7117942 3,16.6231973 3,15.5 C3,8.59644063 8.59644063,3 15.5,3 C22.4035594,3 28,8.59644063 28,15.5 C28,22.4035594 22.4035594,28 15.5,28 C11.1011895,28 7.23306721,25.7278538 5.00525545,22.2931837 C5.56758196,21.389311 6.33540618,20.1370971 6.77987258,19.4086895 Z" id="Combined-Shape" fill="url(#linearGradient-1)"></path>
    </g>
</svg>