<?xml version="1.0" encoding="utf-8"?>
<!-- Generator: Adobe Illustrator 23.0.2, SVG Export Plug-In . SVG Version: 6.00 Build 0)  -->
<svg version="1.1" xmlns="http://www.w3.org/2000/svg" xmlns:xlink="http://www.w3.org/1999/xlink" x="0px" y="0px"
	 viewBox="0 0 25 25" enable-background="new 0 0 25 25" xml:space="preserve">
<g id="Слой_3">
</g>
<g id="Слой_5">
	<g>
		<path d="M20.654,6.624c1.048,0,2.096,0.003,3.144-0.002c0.214-0.001,0.401,0.026,0.486,0.253c0.078,0.208-0.018,0.359-0.163,0.504
			c-1.706,1.705-3.409,3.413-5.112,5.121c-0.427,0.429-0.854,0.858-1.278,1.29c-0.149,0.152-0.306,0.26-0.527,0.169
			c-0.219-0.09-0.26-0.276-0.26-0.489c0.002-2.105,0-4.21,0.002-6.315c0-0.404,0.13-0.529,0.538-0.53
			C18.54,6.624,19.597,6.624,20.654,6.624z"/>
		<path d="M8.047,10.315c0,1.039-0.002,2.078,0.001,3.117c0.001,0.216-0.004,0.423-0.241,0.523c-0.234,0.099-0.39-0.027-0.545-0.183
			c-2.117-2.124-4.237-4.246-6.357-6.367C0.75,7.25,0.622,7.095,0.725,6.858c0.097-0.224,0.289-0.244,0.497-0.244
			C3.318,6.614,5.414,6.613,7.51,6.615c0.425,0,0.537,0.121,0.537,0.556C8.047,8.219,8.047,9.267,8.047,10.315z"/>
		<path d="M12.493,6.624c1.066,0,2.132,0.003,3.198-0.003c0.207-0.001,0.384,0.035,0.465,0.244c0.079,0.202-0.006,0.358-0.155,0.506
			c-1.7,1.698-3.395,3.401-5.092,5.102c-0.44,0.441-0.88,0.883-1.317,1.327c-0.143,0.145-0.296,0.242-0.505,0.161
			c-0.222-0.086-0.269-0.271-0.268-0.484C8.819,11.363,8.817,9.25,8.82,7.136c0-0.385,0.137-0.511,0.529-0.512
			C10.397,6.624,11.445,6.624,12.493,6.624z"/>
		<path d="M8.837,15.45c0.193,0,0.368,0,0.561,0c0,0.555,0,1.095,0,1.634c0.02,0.008,0.041,0.016,0.061,0.024
			c0.16-0.321,0.311-0.647,0.486-0.96c0.046-0.083,0.166-0.175,0.25-0.173c0.098,0.002,0.235,0.078,0.284,0.163
			c0.177,0.31,0.325,0.638,0.535,0.951c0-0.541,0-1.081,0-1.638c0.201,0,0.369,0,0.556,0c0,0.97,0,1.929,0,2.886
			c-0.492,0.096-0.521,0.083-0.729-0.321c-0.202-0.391-0.403-0.781-0.63-1.22c-0.218,0.424-0.415,0.803-0.607,1.184
			c-0.225,0.447-0.234,0.453-0.766,0.357C8.837,17.388,8.837,16.436,8.837,15.45z"/>
		<path d="M22.114,15.471c0.427-0.095,0.46-0.082,0.667,0.248c0.299,0.478,0.597,0.956,0.952,1.417c0-0.554,0-1.107,0-1.682
			c0.203,0,0.377,0,0.564,0c0,0.963,0,1.917,0,2.872c-0.403,0.111-0.468,0.087-0.681-0.251c-0.292-0.464-0.584-0.927-0.925-1.379
			c0,0.543,0,1.086,0,1.651c-0.204,0-0.379,0-0.577,0C22.114,17.388,22.114,16.429,22.114,15.471z"/>
		<path d="M16.959,18.352c0-0.978,0-1.932,0-2.88c0.472,0,0.932-0.034,1.385,0.011c0.371,0.037,0.654,0.301,0.694,0.667
			c0.054,0.495,0.062,1.006,0.001,1.499c-0.051,0.411-0.369,0.667-0.791,0.696C17.828,18.375,17.404,18.352,16.959,18.352z
			 M17.564,17.838c0.752,0.103,0.949-0.068,0.95-0.794c0-0.108,0-0.217,0-0.325c-0.002-0.683-0.266-0.888-0.95-0.725
			C17.564,16.601,17.564,17.212,17.564,17.838z"/>
		<path d="M19.211,18.371c0.338-0.97,0.653-1.89,0.984-2.803c0.024-0.066,0.165-0.128,0.249-0.125
			c0.136,0.005,0.362,0.031,0.391,0.107c0.344,0.917,0.659,1.846,0.999,2.82c-0.204,0-0.376,0.023-0.536-0.01
			c-0.074-0.016-0.164-0.136-0.179-0.22c-0.048-0.269-0.195-0.36-0.451-0.319c-0.062,0.01-0.128,0.01-0.189,0
			c-0.311-0.052-0.516,0.032-0.571,0.381c-0.01,0.067-0.137,0.146-0.221,0.163C19.549,18.391,19.402,18.371,19.211,18.371z
			 M20.552,16.4c-0.021,0.002-0.043,0.005-0.064,0.007c-0.091,0.291-0.183,0.582-0.28,0.891c0.231,0,0.417,0,0.629,0
			C20.739,16.987,20.645,16.694,20.552,16.4z"/>
		<path d="M11.856,18.371c0.338-0.972,0.651-1.882,0.977-2.788c0.024-0.066,0.14-0.142,0.212-0.14
			c0.147,0.003,0.396,0.016,0.425,0.092c0.35,0.922,0.668,1.857,1.01,2.835c-0.212,0-0.386,0.028-0.544-0.012
			c-0.079-0.02-0.162-0.154-0.184-0.25c-0.052-0.222-0.157-0.328-0.392-0.288c-0.079,0.013-0.164,0.014-0.243,0
			c-0.319-0.058-0.508,0.049-0.569,0.385c-0.012,0.067-0.138,0.143-0.223,0.16C12.19,18.39,12.045,18.371,11.856,18.371z
			 M12.851,17.293c0.229,0,0.415,0,0.63,0c-0.101-0.315-0.195-0.608-0.314-0.98C13.048,16.684,12.955,16.972,12.851,17.293z"/>
		<path d="M15.747,15.951c-0.403,0-0.768,0-1.148,0c0-0.181,0-0.329,0-0.498c0.639,0,1.267,0,1.967,0
			c-0.053,0.208-0.066,0.408-0.152,0.569c-0.287,0.532-0.601,1.05-0.903,1.574c-0.043,0.075-0.081,0.154-0.142,0.271
			c0.42,0,0.795,0,1.186,0c0,0.177,0,0.325,0,0.503c-0.617,0-1.221,0.003-1.824-0.006c-0.05-0.001-0.142-0.093-0.14-0.138
			c0.008-0.139,0.022-0.293,0.088-0.41c0.298-0.536,0.616-1.062,0.925-1.592C15.649,16.147,15.686,16.068,15.747,15.951z"/>
	</g>
</g>
</svg>
