<?xml version="1.0" encoding="utf-8"?>
<!-- Generator: Adobe Illustrator 23.0.1, SVG Export Plug-In . SVG Version: 6.00 Build 0)  -->
<svg version="1.1" id="Layer_1" xmlns="http://www.w3.org/2000/svg" xmlns:xlink="http://www.w3.org/1999/xlink" x="0px" y="0px"
	 viewBox="0 0 258.2 91.2" style="enable-background:new 0 0 258.2 91.2;" xml:space="preserve">
<style type="text/css">
	.st0{fill:#78BD1F;}
	.st1{fill:#231F20;}
</style>
<title>NETENT_LOGO2015_ALL-WHITE</title>
<polygon class="st0" points="135.1,0 132.5,0 132.5,91.2 135.1,91.2 135.1,73.6 168.3,73.6 168.3,63 142.8,63 142.8,50.8 
	164.6,50.8 164.6,40.1 142.8,40.1 142.8,28.2 168.3,28.2 168.3,17.5 135.1,17.5 "/>
<polygon class="st1" points="31.7,51.9 22.3,36.7 10.1,17.7 10,17.5 0,17.5 0,73.6 11.1,73.6 11.1,39.2 19.4,52.6 32.8,73.6 
	42.9,73.6 42.9,17.5 31.7,17.5 "/>
<polygon class="st1" points="49.2,73.6 85.9,73.6 85.9,63 60.3,63 60.3,50.8 82.2,50.8 82.2,40.1 60.3,40.1 60.3,28.2 85.9,28.2 
	85.9,17.5 49.2,17.5 "/>
<polygon class="st1" points="90.4,28.3 103.3,28.3 103.3,73.6 114.5,73.6 114.5,28.3 127.2,28.3 127.2,17.5 90.4,17.5 "/>
<polygon class="st0" points="205.6,52 196.2,36.8 184.1,17.8 183.9,17.6 173.9,17.6 173.9,73.7 185,73.7 185,39.2 193.3,52.7 
	206.7,73.7 216.8,73.7 216.8,17.6 205.6,17.6 "/>
<polygon class="st0" points="221.4,17.6 221.4,28.4 234.2,28.4 234.2,73.7 245.4,73.7 245.4,28.4 258.2,28.4 258.2,17.6 "/>
</svg>
