<?xml version="1.0" encoding="utf-8"?>
<!-- Generator: Adobe Illustrator 23.0.2, SVG Export Plug-In . SVG Version: 6.00 Build 0)  -->
<svg version="1.1" id="Слой_3" xmlns="http://www.w3.org/2000/svg" xmlns:xlink="http://www.w3.org/1999/xlink" x="0px" y="0px"
	 viewBox="0 0 25 25" enable-background="new 0 0 25 25" xml:space="preserve">
<g id="Слой_4">
	<g id="Слой_2">
		<g>
			<g>
				<path d="M9.268,24.365c-0.182,0-0.335,0-0.512,0c-0.008-0.087-0.021-0.162-0.021-0.237c-0.002-0.9-0.002-1.799-0.001-2.699
					c0-0.224-0.066-0.41-0.285-0.505c-0.298-0.128-0.605,0.091-0.605,0.43c-0.001,0.922,0,1.844,0,2.766
					c0,0.071-0.007,0.142-0.012,0.236c-0.185,0-0.356,0-0.545,0c-0.007-0.082-0.017-0.153-0.018-0.223
					c-0.001-0.905-0.002-1.81,0-2.715c0.001-0.409,0.154-0.745,0.518-0.95c0.383-0.216,0.761-0.177,1.12,0.073
					c0.027,0.019,0.056,0.037,0.084,0.055c0.004,0.003,0.011,0.002,0.031,0.006c0.037-0.022,0.085-0.049,0.13-0.079
					c0.704-0.459,1.582-0.029,1.605,0.81c0.026,0.96,0.007,1.922,0.005,2.883c0,0.047-0.018,0.094-0.029,0.151
					c-0.179,0-0.342,0-0.527,0c-0.008-0.081-0.021-0.15-0.021-0.219c-0.001-0.877-0.001-1.754-0.001-2.632
					c0-0.05,0.001-0.101-0.001-0.151c-0.008-0.278-0.187-0.472-0.438-0.475c-0.248-0.002-0.447,0.192-0.453,0.463
					c-0.008,0.369-0.003,0.737-0.003,1.106c0,0.559,0.001,1.117-0.001,1.676C9.287,24.206,9.275,24.277,9.268,24.365z"/>
				<path d="M12.929,24.364c-0.188,0-0.352,0-0.54,0c0-1.834,0-3.653,0-5.488c0.179,0,0.342,0,0.542,0c0,0.524,0,1.037,0,1.582
					c0.093-0.028,0.144-0.041,0.194-0.059c0.728-0.255,1.491,0.262,1.5,1.033c0.011,0.917,0.004,1.833,0.003,2.75
					c0,0.058-0.02,0.116-0.03,0.174c-0.18,0-0.341,0-0.515,0c-0.006-0.1-0.013-0.177-0.014-0.253c-0.002-0.878,0-1.755-0.005-2.633
					c-0.001-0.297-0.198-0.525-0.47-0.567c-0.263-0.041-0.526,0.108-0.615,0.359c-0.027,0.077-0.033,0.164-0.033,0.246
					c-0.002,0.872-0.001,1.744-0.002,2.616C12.944,24.195,12.935,24.266,12.929,24.364z"/>
				<path d="M17.482,22.401c0,0.318,0.003,0.637-0.001,0.955c-0.007,0.593-0.444,1.06-1.087,1.104
					c-0.487,0.034-0.997-0.284-1.145-0.89c-0.023-0.096-0.032-0.198-0.032-0.298c-0.003-0.598-0.004-1.196-0.001-1.794
					c0.003-0.552,0.392-1.023,0.921-1.125c0.54-0.104,1.063,0.178,1.269,0.7c0.05,0.126,0.07,0.271,0.075,0.408
					c0.011,0.313,0.003,0.626,0.003,0.939C17.483,22.401,17.482,22.401,17.482,22.401z M15.795,22.397c0,0.296-0.002,0.591,0,0.887
					c0.002,0.357,0.228,0.608,0.547,0.614c0.327,0.006,0.57-0.229,0.575-0.586c0.009-0.614,0.009-1.228,0-1.841
					c-0.005-0.353-0.254-0.591-0.58-0.584c-0.309,0.007-0.538,0.261-0.541,0.605C15.793,21.795,15.795,22.096,15.795,22.397z"/>
				<path d="M4.406,22.409c0-0.318-0.005-0.637,0.001-0.955c0.011-0.64,0.501-1.12,1.135-1.121c0.615,0,1.125,0.508,1.129,1.135
					c0.004,0.62,0.004,1.24,0,1.86c-0.004,0.62-0.523,1.134-1.134,1.13c-0.631-0.004-1.123-0.493-1.13-1.128
					c-0.003-0.307-0.001-0.614-0.001-0.921C4.407,22.409,4.407,22.409,4.406,22.409z M6.092,22.401
					C6.092,22.401,6.092,22.401,6.092,22.401c0.001-0.318,0.004-0.637,0-0.955c-0.005-0.309-0.234-0.543-0.535-0.556
					c-0.296-0.012-0.572,0.209-0.579,0.512c-0.015,0.659-0.015,1.318,0.001,1.976c0.008,0.318,0.274,0.53,0.587,0.519
					c0.307-0.011,0.519-0.231,0.525-0.559C6.096,23.026,6.092,22.714,6.092,22.401z"/>
				<path d="M22.643,24.358c-0.181,0-0.343,0-0.521,0c-0.006-0.104-0.015-0.186-0.015-0.268c-0.002-0.855-0.003-1.71-0.003-2.565
					c0-0.18-0.034-0.345-0.172-0.473c-0.176-0.164-0.381-0.211-0.604-0.119c-0.215,0.089-0.337,0.254-0.338,0.493
					c-0.002,0.905-0.001,1.811-0.003,2.716c0,0.07-0.011,0.141-0.017,0.224c-0.18,0-0.345,0-0.53,0
					c-0.011-0.076-0.028-0.145-0.029-0.214c-0.002-0.894-0.003-1.788,0.001-2.682c0.003-0.624,0.497-1.127,1.108-1.135
					c0.621-0.009,1.137,0.467,1.146,1.094c0.013,0.927,0.002,1.855,0,2.783C22.666,24.254,22.653,24.297,22.643,24.358z"/>
				<path d="M3.923,24.325c-0.308,0.207-0.784,0.171-1.122-0.077C2.5,24.027,2.33,23.728,2.329,23.349
					c-0.002-1.174-0.002-2.347-0.001-3.521c0-0.06,0.009-0.12,0.015-0.199c0.175,0,0.337,0,0.537,0c0,0.303,0,0.594,0,0.918
					c0.372,0,0.707,0,1.059,0c0,0.201,0,0.369,0,0.566c-0.345,0-0.676,0-1.026,0c-0.01,0.103-0.023,0.178-0.023,0.253
					c-0.002,0.609-0.003,1.218-0.001,1.827c0.002,0.545,0.244,0.752,0.778,0.672c0.016-0.002,0.033,0.002,0.078,0.006
					C3.802,24.018,3.864,24.174,3.923,24.325z"/>
				<path d="M19.723,21.217c-0.04-0.054-0.065-0.092-0.094-0.125c-0.171-0.19-0.378-0.252-0.62-0.164
					c-0.225,0.082-0.363,0.297-0.363,0.568c-0.002,0.871-0.001,1.742-0.003,2.614c0,0.081-0.01,0.162-0.016,0.249
					c-0.187,0-0.348,0-0.522,0c-0.008-0.076-0.019-0.13-0.019-0.184c0-0.91-0.01-1.821,0.005-2.731
					c0.015-0.886,0.934-1.393,1.693-0.938c0.156,0.093,0.276,0.248,0.447,0.406C20.042,21.025,19.898,21.112,19.723,21.217z"/>
			</g>
			<g>
				
					<linearGradient id="SVGID_1_" gradientUnits="userSpaceOnUse" x1="36.0409" y1="-115.4182" x2="43.5971" y2="-102.3305" gradientTransform="matrix(0.719 0.695 -0.695 0.719 -93.2459 58.3249)">
					<stop  offset="0" style="stop-color:#92D1F1"/>
					<stop  offset="0.2395" style="stop-color:#22AFE5"/>
					<stop  offset="1" style="stop-color:#2A3784"/>
				</linearGradient>
				<path fill="url(#SVGID_1_)" d="M18.128,2.812C14.912-0.296,9.785-0.209,6.677,3.007S3.656,11.35,6.872,14.458
					c-0.627-0.606-0.644-1.605-0.038-2.232c0.606-0.627,1.605-0.644,2.232-0.038c-1.962-1.896-2.015-5.024-0.119-6.986
					s5.024-2.015,6.986-0.119c0.627,0.606,1.626,0.589,2.232-0.038C18.772,4.418,18.755,3.418,18.128,2.812z"/>
				
					<linearGradient id="SVGID_2_" gradientUnits="userSpaceOnUse" x1="39.644" y1="-101.9497" x2="47.306" y2="-115.2208" gradientTransform="matrix(0.719 0.695 -0.695 0.719 -93.2459 58.3249)">
					<stop  offset="0" style="stop-color:#92D1F1"/>
					<stop  offset="0.2395" style="stop-color:#22AFE5"/>
					<stop  offset="1" style="stop-color:#2A3784"/>
				</linearGradient>
				<path fill="url(#SVGID_2_)" d="M18.128,2.812c0.627,0.606,0.644,1.605,0.038,2.232c-0.606,0.627-1.605,0.644-2.232,0.038
					c1.962,1.896,2.015,5.024,0.119,6.986s-5.024,2.015-6.986,0.119c-0.627-0.606-1.626-0.589-2.232,0.038
					c-0.606,0.627-0.589,1.626,0.038,2.232c3.216,3.108,8.342,3.021,11.451-0.195S21.344,5.92,18.128,2.812z"/>
			</g>
		</g>
	</g>
</g>
</svg>
