<svg width="42" height="30" viewBox="0 0 42 30" fill="none" xmlns="http://www.w3.org/2000/svg">
<path d="M1.00559 25.4636C11.8338 25.4726 22.613 26.7019 33.0589 29.1191C34.5337 29.4613 36.0085 28.5365 36.0105 27.2421L36.0131 25.5167M4.08685 1.00462L4.0849 2.29218C4.08438 2.63366 3.92352 2.96091 3.63772 3.20194C3.35191 3.44297 2.96456 3.57804 2.56088 3.57743L1.03882 3.57512M1.03882 3.57512L1.03979 2.93134C1.04141 1.86524 2.06555 1.00155 3.32582 1.00347L37.5723 1.05545M1.03882 3.57512L1.01536 19.0258M37.5723 1.05545L37.5703 2.34301C37.5692 3.05374 38.2503 3.6316 39.0904 3.63288L40.6125 3.63519M37.5723 1.05545L38.3333 1.05661C39.5936 1.05852 40.6151 1.92531 40.6135 2.99141L40.5881 19.7297C40.5864 20.7958 39.5623 21.6594 38.302 21.6575L37.541 21.6564M1.01536 19.0258L1.01438 19.6696C1.01361 20.1818 1.2534 20.6734 1.68102 21.0363C2.10863 21.3991 2.68904 21.6035 3.29455 21.6044L4.05558 21.6055M1.01536 19.0258L2.53743 19.0281C2.9411 19.0287 3.32804 19.165 3.61312 19.4069C3.89819 19.6488 4.05806 19.9765 4.05754 20.318L4.05558 21.6055M37.541 21.6564L37.543 20.3688C37.5435 20.0273 37.7043 19.7001 37.9901 19.4591C38.276 19.218 38.6633 19.083 39.067 19.0836L40.589 19.0859M37.541 21.6564L4.05558 21.6055M26.9022 11.3397C26.9001 12.7057 26.2567 14.0147 25.1135 14.9788C23.9702 15.9429 22.4208 16.4832 20.8061 16.4807C19.1914 16.4783 17.6437 15.9333 16.5034 14.9657C15.363 13.9981 14.7236 12.6872 14.7257 11.3213C14.7277 9.95533 15.3712 8.64632 16.5144 7.6822C17.6576 6.71808 19.207 6.17782 20.8217 6.18027C22.4365 6.18272 23.9842 6.72768 25.1245 7.69527C26.2648 8.66286 26.9043 9.97381 26.9022 11.3397ZM32.9904 11.349L33.0067 11.349L33.0067 11.3627L32.9904 11.3627L32.9904 11.349ZM8.63741 11.312L8.65365 11.312L8.65363 11.3258L8.63739 11.3257L8.63741 11.312Z" stroke="#407BFF" stroke-width="1.5" stroke-linecap="round" stroke-linejoin="round"/>
</svg>
