<svg width="547" height="559" viewBox="0 0 547 559" fill="none" xmlns="http://www.w3.org/2000/svg">
<path d="M547 427.521H0V427.8H547V427.521Z" fill="#E6E6E6"/>
<path d="M136.56 444.436H100.324V444.716H136.56V444.436Z" fill="#E6E6E6"/>
<path d="M88.8568 444.436H67.8596V444.716H88.8568V444.436Z" fill="#E6E6E6"/>
<path d="M230.346 448.551H209.35V448.83H230.346V448.551Z" fill="#E6E6E6"/>
<path d="M339.814 454.792H292.561V455.072H339.814V454.792Z" fill="#E6E6E6"/>
<path d="M282.821 454.792H275.893V455.072H282.821V454.792Z" fill="#E6E6E6"/>
<path d="M495.957 448.551H393.476V448.83H495.957V448.551Z" fill="#E6E6E6"/>
<path d="M259.293 377.66H48.0429C44.6001 377.66 41.7983 374.797 41.7983 371.279V67.8178C41.7983 64.2995 44.6001 61.4363 48.0429 61.4363H259.293C262.735 61.4363 265.537 64.2995 265.537 67.8178V371.279C265.537 374.797 262.735 377.66 259.293 377.66ZM48.0429 61.7169C44.75 61.7169 42.0718 64.4538 42.0718 67.8189V371.28C42.0718 374.645 44.75 377.382 48.0429 377.382H259.293C262.585 377.382 265.263 374.645 265.263 371.28V67.8178C265.263 64.4538 262.585 61.7158 259.293 61.7158L48.0429 61.7169Z" fill="#E6E6E6"/>
<path d="M495.921 377.66H284.672C281.23 377.66 278.428 374.797 278.428 371.279V67.8178C278.428 64.2995 281.23 61.4363 284.672 61.4363H495.921C499.365 61.4363 502.166 64.2995 502.166 67.8178V371.279C502.167 374.797 499.365 377.66 495.921 377.66ZM284.672 61.7169C281.38 61.7169 278.702 64.4538 278.702 67.8189V371.28C278.702 374.645 281.38 377.382 284.672 377.382H495.921C499.214 377.382 501.892 374.645 501.892 371.28V67.8178C501.892 64.4538 499.214 61.7158 495.921 61.7158L284.672 61.7169Z" fill="#E6E6E6"/>
<path d="M292.534 332.02H268.479V429.548H292.534V332.02Z" fill="#E0E0E0"/>
<path d="M287.966 429.549H292.534V416.267H283.175L287.966 429.549Z" fill="#FAFAFA"/>
<path d="M187.122 332.02H163.066V429.548H187.122V332.02Z" fill="#E0E0E0"/>
<path d="M292.536 332.02H183.135V421.399H292.536V332.02Z" fill="#FAFAFA"/>
<path d="M288.568 336.414V360.061H187.101V336.414H288.568ZM288.99 335.982H186.678V360.493H288.99V335.982Z" fill="#E0E0E0"/>
<path d="M187.703 429.549H183.135V416.267H192.494L187.703 429.549Z" fill="#FAFAFA"/>
<path d="M235.415 348.237C235.415 349.602 236.498 350.71 237.834 350.71C239.17 350.71 240.254 349.603 240.254 348.237C240.254 346.872 239.171 345.764 237.834 345.764C236.499 345.765 235.415 346.872 235.415 348.237Z" fill="#E6E6E6"/>
<path d="M288.568 364.886V388.533H187.101V364.886H288.568ZM288.99 364.455H186.678V388.966H288.99V364.455Z" fill="#E0E0E0"/>
<path d="M235.415 376.709C235.415 378.074 236.498 379.182 237.834 379.182C239.17 379.182 240.254 378.075 240.254 376.709C240.254 375.343 239.171 374.236 237.834 374.236C236.499 374.237 235.415 375.344 235.415 376.709Z" fill="#E6E6E6"/>
<path d="M288.568 393.358V417.005H187.101V393.358H288.568ZM288.99 392.927H186.678V417.438H288.99V392.927Z" fill="#E0E0E0"/>
<path d="M235.415 405.182C235.415 406.547 236.498 407.655 237.834 407.655C239.17 407.655 240.254 406.548 240.254 405.182C240.254 403.816 239.171 402.709 237.834 402.709C236.499 402.709 235.415 403.816 235.415 405.182Z" fill="#E6E6E6"/>
<path d="M172.425 275.381H148.369V429.549H172.425V275.381Z" fill="#E0E0E0"/>
<path d="M167.857 429.549H172.425V416.267H163.066L167.857 429.549Z" fill="#FAFAFA"/>
<path d="M82.5171 275.381H58.4612V429.549H82.5171V275.381Z" fill="#E0E0E0"/>
<path d="M172.425 275.381H78.5305V421.399H172.425V275.381Z" fill="#FAFAFA"/>
<path d="M168.383 279.516V312.575H82.573V279.516H168.383ZM168.881 279.007H82.0752V313.085H168.881V279.007Z" fill="#E0E0E0"/>
<path d="M168.383 316.593V404.285H127.51V316.593H168.383ZM168.881 316.084H127.011V404.796H168.881V316.084Z" fill="#E0E0E0"/>
<path d="M123.446 316.593V404.285H82.573V316.593H123.446ZM123.945 316.084H82.0752V404.796H123.945V316.084Z" fill="#E0E0E0"/>
<path d="M83.0991 429.549H78.5305V416.267H87.8897L83.0991 429.549Z" fill="#FAFAFA"/>
<path d="M123.059 296.045C123.059 297.411 124.142 298.518 125.479 298.518C126.814 298.518 127.898 297.411 127.898 296.045C127.898 294.68 126.815 293.572 125.479 293.572C124.142 293.573 123.059 294.68 123.059 296.045Z" fill="#E6E6E6"/>
<path d="M131.721 358.348C131.721 359.713 132.804 360.821 134.141 360.821C135.478 360.821 136.561 359.714 136.561 358.348C136.561 356.983 135.478 355.875 134.141 355.875C132.804 355.875 131.721 356.982 131.721 358.348Z" fill="#E6E6E6"/>
<path d="M114.395 358.348C114.395 359.713 115.478 360.821 116.815 360.821C118.151 360.821 119.235 359.714 119.235 358.348C119.235 356.983 118.152 355.875 116.815 355.875C115.479 355.875 114.395 356.982 114.395 358.348Z" fill="#E6E6E6"/>
<path d="M111.67 232.397H101.522C101.522 232.397 103.284 241.984 103.284 247.626C103.284 253.267 95.5643 275.381 106.596 275.381C117.627 275.381 109.909 253.266 109.909 247.626C109.908 241.983 111.67 232.397 111.67 232.397Z" fill="#E0E0E0"/>
<path d="M73.0825 255.069V261.808C73.0825 269.272 79.059 275.38 86.3648 275.38H92.9583C100.263 275.38 106.239 269.272 106.239 261.808V255.069H73.0825Z" fill="#F5F5F5"/>
<path d="M214.06 317.808C214.06 325.625 222.627 332.021 233.098 332.021H242.549C253.02 332.021 261.588 325.625 261.588 317.808H214.06Z" fill="#E0E0E0"/>
<path d="M464.519 306.365C458.786 311.147 450.875 319.903 443.625 332.223C438.796 340.426 435.886 349.023 434.608 360.379C434.635 347.524 434.675 333.711 434.718 320.675C436.174 317.32 439.5 309.589 441.886 303.48C449.847 283.098 452.812 278.086 459.972 260.505C469.522 237.056 479.308 209.233 476.506 211.456C470.796 215.986 448.915 257.858 446.55 263.851C438.415 284.467 436.149 299.494 434.741 313.996C434.785 301.751 434.832 290.509 434.878 281.834C435.025 253.54 435.496 244.408 435.726 241.592C436.611 240.161 437.657 238.493 438.265 237.594C443.405 229.999 445.387 223.529 450.23 212.202C457.093 196.151 463.003 167.653 461.275 169.091C454.081 175.075 448.407 187.942 440.95 204.338C433.494 220.733 435.625 230.161 434.146 244.164C433.836 246.912 433.598 257.282 433.426 271.654C431.492 256.343 427.864 246.253 421.246 237.084C413.104 225.807 405.229 218.189 399.45 214.21C393.671 210.232 409.428 237.934 416.964 250.025C423.674 260.792 429.856 270.294 433.341 279.652C433.156 299.13 433.071 323.795 433.071 346.754C431.342 336.306 428.52 325.055 424.754 316.343C420.229 305.875 413.268 289.819 407.727 284.373C406.396 283.065 413.521 314.291 418.093 322.594C422.666 330.898 426.022 338.723 428.901 343.429C429.572 344.527 431.8 348.762 433.072 351.197C433.084 379.226 433.224 403.958 433.462 412.376H434.647C434.566 410.204 434.553 395.946 434.578 377.076C437.432 366.829 443.957 355.137 449.342 344.47C455.22 332.825 470.253 301.583 464.519 306.365Z" fill="#E0E0E0"/>
<path d="M451.209 429.549H416.92L414.332 395.199H453.798L451.209 429.549Z" fill="#F0F0F0"/>
<path d="M456.353 399.202H411.776L410.5 387.613H457.63L456.353 399.202Z" fill="#F5F5F5"/>
<path d="M135.941 84.4055H74.6196V153.217H135.941V84.4055Z" fill="#E0E0E0"/>
<path d="M142.582 84.4055H79.2417V153.217H142.582V84.4055Z" fill="#F5F5F5"/>
<path d="M137.275 147.794V89.8281L84.5474 89.8281V147.794H137.275Z" fill="white"/>
<path d="M124.495 133.745V103.879H97.3287V133.745H124.495Z" fill="#F5F5F5"/>
<path d="M448.596 92.4272H391.631V156.351H448.596V92.4272Z" fill="#E0E0E0"/>
<path d="M454.766 92.4272H395.925V156.351H454.766V92.4272Z" fill="#F5F5F5"/>
<path d="M449.836 151.314V97.4656L400.855 97.4656V151.314H449.836Z" fill="white"/>
<path d="M425.345 140.006C433.784 140.006 440.626 133.014 440.626 124.39C440.626 115.765 433.784 108.773 425.345 108.773C416.906 108.773 410.064 115.765 410.064 124.39C410.064 133.014 416.906 140.006 425.345 140.006Z" fill="#F5F5F5"/>
<path d="M199.643 125.436H154.155V176.482H199.643V125.436Z" fill="#E0E0E0"/>
<path d="M204.572 125.436H157.584V176.482H204.572V125.436Z" fill="#F5F5F5"/>
<path d="M200.635 172.46V129.459H161.521V172.46H200.635Z" fill="white"/>
<path d="M181.078 140.089L170.381 159.024H191.775L181.078 140.089Z" fill="#F5F5F5"/>
<path d="M273.5 478.013C390.648 478.013 485.615 472.346 485.615 465.354C485.615 458.363 390.648 452.695 273.5 452.695C156.352 452.695 61.3855 458.363 61.3855 465.354C61.3855 472.346 156.352 478.013 273.5 478.013Z" fill="#F5F5F5"/>
<path d="M382.075 182.717L371.224 178.22C371.224 178.22 356.903 204.91 352.802 206.258C347.22 208.091 335.678 213.188 328.818 214.143C327.894 215.247 326.369 218.731 326.514 220.001C335.717 223.137 355.934 218.973 360.262 215.689C370.128 208.2 382.075 182.717 382.075 182.717Z" fill="#E58A7B"/>
<path d="M385.416 176.661C387.435 184.307 376.474 199.665 376.474 199.665L362.075 191.411C362.075 191.411 364.759 185.097 368.046 178.668C373.353 168.285 383.111 167.935 385.416 176.661Z" fill="#407BFF"/>
<path opacity="0.2" d="M385.416 176.661C387.435 184.307 376.474 199.665 376.474 199.665L362.075 191.411C362.075 191.411 364.759 185.097 368.046 178.668C373.353 168.285 383.111 167.935 385.416 176.661Z" fill="black"/>
<path opacity="0.2" d="M367.816 194.697L373.471 197.937L374.46 180.199C371.178 182.784 368.85 190.562 367.816 194.697Z" fill="black"/>
<path d="M375.966 170.901C375.966 170.901 364.787 196.32 371.305 243.657C384.579 243.657 408.901 243.657 415.36 243.657C416.06 236.745 413.745 203.031 422.136 170.467C422.136 170.467 414.673 168.919 407.498 168.564C401.884 168.287 393.745 168.103 388.769 168.565C382.21 169.173 375.966 170.901 375.966 170.901Z" fill="#407BFF"/>
<path opacity="0.2" d="M375.966 170.901C375.966 170.901 364.787 196.32 371.305 243.657C384.579 243.657 408.901 243.657 415.36 243.657C416.06 236.745 413.745 203.031 422.136 170.467C422.136 170.467 414.673 168.919 407.498 168.564C401.884 168.287 393.745 168.103 388.769 168.565C382.21 169.173 375.966 170.901 375.966 170.901Z" fill="black"/>
<path d="M365.749 466.365C365.681 467.566 382.384 468.538 403.057 468.538C423.73 468.538 440.545 467.566 440.614 466.365C440.683 465.164 423.98 464.191 403.307 464.191C382.633 464.19 365.818 465.164 365.749 466.365Z" fill="#E8ECF1"/>
<path d="M396.183 436.196L388.343 439.283L395.065 457.115L402.905 454.028L396.183 436.196Z" fill="#E58A7B"/>
<path d="M429.998 457.77H421.761L418.74 438.276H426.976L429.998 457.77Z" fill="#E58A7B"/>
<path d="M421.232 456.795H430.486C430.823 456.795 431.101 457.034 431.154 457.369L432.352 464.851C432.477 465.627 431.838 466.361 431.06 466.348C427.833 466.291 426.274 466.098 422.205 466.098C419.702 466.098 414.529 466.364 411.071 466.364C407.689 466.364 407.362 462.87 408.796 462.553C415.224 461.135 417.727 459.178 419.865 457.312C420.25 456.976 420.739 456.795 421.232 456.795Z" fill="#263238"/>
<path d="M393.81 453.848L402.585 451.241C402.913 451.143 403.251 451.287 403.396 451.588L406.648 458.292C406.985 458.986 406.586 459.858 405.825 460.071C402.647 460.957 400.51 461.512 396.531 462.693C393.782 463.509 390.986 464.84 388.27 465.725C386.389 466.338 381.972 466.363 379.685 466.363C376.303 466.363 375.55 462.719 376.999 462.552C380.667 462.132 381.16 462.327 383.185 461.289C386.532 459.573 389.122 458.152 392.02 455.05C392.525 454.511 393.117 454.053 393.81 453.848Z" fill="#263238"/>
<path d="M330.205 214.062L321.142 210.165L317.41 220.426C317.41 220.426 322.64 221.395 328.614 220.426L330.205 214.062Z" fill="#E58A7B"/>
<path d="M314.406 209.913L314.166 216.741L317.41 220.426L321.142 210.165L314.406 209.913Z" fill="#E58A7B"/>
<path d="M396.212 436.176L388.371 439.269L391.842 448.459L399.683 445.366L396.212 436.176Z" fill="#CF6F64"/>
<path d="M426.979 438.282H418.739L420.301 448.329H428.541L426.979 438.282Z" fill="#CF6F64"/>
<path opacity="0.2" d="M369.907 230.853C370.064 232.875 370.256 234.942 370.491 237.068L403.251 226.199C408.366 224.636 412.818 221.351 415.854 216.86C415.977 213.872 416.146 210.736 416.393 207.462C416.506 205.865 416.64 204.233 416.787 202.579C416.944 200.857 417.124 199.098 417.326 197.329L369.907 230.853Z" fill="black"/>
<path d="M380.603 194.183L379.487 194.048C380.137 188.469 384.212 184.06 388.517 184.165L388.484 185.314C384.768 185.203 381.187 189.18 380.603 194.183Z" fill="white"/>
<path d="M386.431 204.507C386.37 204.507 386.309 204.506 386.247 204.505L386.279 203.355C390.042 203.496 393.576 199.488 394.161 194.485L395.276 194.622C394.635 200.121 390.689 204.507 386.431 204.507Z" fill="white"/>
<path d="M406.878 147.014C405.344 153.172 403.518 164.454 407.498 168.563C407.498 168.563 404.718 174.809 393.521 174.809C383.289 174.809 388.769 168.563 388.769 168.563C395.583 166.923 395.702 161.828 394.806 157.043L406.878 147.014Z" fill="#E58A7B"/>
<path d="M401.956 151.107L394.812 157.04C395.027 158.172 395.18 159.321 395.194 160.436C397.283 162.562 401.475 157.177 401.905 154.43C402.118 153.062 402.138 151.745 401.956 151.107Z" fill="#CF6F64"/>
<path d="M382.533 146.938C383.58 148.854 385.427 150.047 387.173 150.444C389.8 151.042 391.12 148.572 390.396 146.087C389.744 143.85 387.592 140.844 384.952 141.359C382.352 141.868 381.335 144.746 382.533 146.938Z" fill="#CF6F64"/>
<path d="M386.867 127.228C382.775 129.145 381.333 145.755 386.477 148.211C391.621 150.666 394.617 123.6 386.867 127.228Z" fill="#263238"/>
<path d="M408.127 137.747C407.147 146.085 406.987 150.992 402.62 155.271C396.052 161.709 386.2 157.891 384.73 149.567C383.408 142.076 385.231 129.698 393.409 126.38C401.465 123.111 409.106 129.409 408.127 137.747Z" fill="#E58A7B"/>
<path d="M394.687 131.549C400.739 129.967 405.194 128.89 403.604 134.053C401.486 140.931 398.946 147.594 402.354 147.905C404.426 148.094 413.616 144.108 412.449 140.079C411.433 136.568 415.705 135.621 416.492 133.831C419.329 127.385 411.224 128.222 412.666 124.322C414.07 120.524 406.136 114.105 401.739 117.241C394.622 122.318 382.391 122.245 388.822 113.919C393.427 107.955 385.211 109.179 385.211 109.179C385.211 109.179 390.173 112.188 381.82 116.839C372.966 121.767 381.071 135.109 394.687 131.549Z" fill="#263238"/>
<path d="M411.285 146.938C410.017 148.854 408.034 150.047 406.242 150.444C403.546 151.042 402.51 148.572 403.519 146.087C404.428 143.85 406.924 140.844 409.505 141.359C412.047 141.868 412.734 144.746 411.285 146.938Z" fill="#E58A7B"/>
<path d="M371.305 243.657C371.305 243.657 363.91 311.293 363.333 336.962C362.733 363.662 388.394 446.966 388.394 446.966L401.534 441.327C401.534 441.327 386.235 365.221 388.36 338.999C390.677 310.413 400.264 243.656 400.264 243.656H371.305V243.657Z" fill="#407BFF"/>
<path opacity="0.2" d="M389.682 262.228C383.791 274.727 387.76 299.44 390.952 314.089C392.166 303.748 393.605 292.525 394.977 282.139C394.842 266.169 393.628 253.842 389.682 262.228Z" fill="black"/>
<path d="M400.94 436.943C401.001 436.918 402.498 441.223 402.498 441.223L387.353 447.722L384.967 443.189L400.94 436.943Z" fill="#407BFF"/>
<path d="M386.933 243.657C386.933 243.657 392.59 307.984 396.339 332.084C400.445 358.474 416.572 446.384 416.572 446.384H431.659C431.659 446.384 422.619 360.605 420.911 334.477C419.058 306.117 415.359 243.657 415.359 243.657H386.933Z" fill="#407BFF"/>
<path d="M431.89 442.367C431.954 442.367 432.394 446.676 432.394 446.676H415.812L414.628 441.729L431.89 442.367Z" fill="#407BFF"/>
<path opacity="0.2" d="M426.11 437.274C426.039 437.274 425.978 437.219 425.971 437.147C425.889 436.366 417.737 358.924 416.204 335.448C414.54 309.972 411.193 253.485 411.159 252.917C411.155 252.838 411.214 252.77 411.29 252.765C411.294 252.765 411.297 252.765 411.299 252.765C411.373 252.765 411.436 252.824 411.44 252.9C411.473 253.467 414.82 309.954 416.485 335.428C418.017 358.899 426.168 436.336 426.25 437.116C426.259 437.195 426.203 437.265 426.126 437.273C426.12 437.274 426.114 437.274 426.11 437.274Z" fill="black"/>
<path d="M395.617 140.077C395.577 140.756 395.195 141.307 394.76 141.307C394.326 141.307 394.005 140.757 394.045 140.077C394.083 139.399 394.467 138.848 394.901 138.848C395.336 138.848 395.656 139.399 395.617 140.077Z" fill="#263238"/>
<path d="M388.108 140.077C388.068 140.756 387.685 141.307 387.251 141.307C386.817 141.307 386.496 140.757 386.536 140.077C386.575 139.399 386.958 138.848 387.392 138.848C387.826 138.848 388.147 139.399 388.108 140.077Z" fill="#263238"/>
<path d="M390.475 140.415C390.475 140.415 388.74 144.333 386.968 146.222C388.079 147.344 390.106 146.83 390.106 146.83L390.475 140.415Z" fill="#DF5753"/>
<path d="M390.666 149.679C390.559 149.679 390.476 149.589 390.483 149.48C390.489 149.37 390.582 149.281 390.689 149.281C393.606 149.281 395.086 147.199 395.101 147.178C395.167 147.086 395.29 147.059 395.375 147.12C395.461 147.18 395.48 147.303 395.415 147.396C395.35 147.488 393.792 149.679 390.666 149.679Z" fill="#263238"/>
<path d="M396.953 138.013C396.84 138.057 396.713 138.051 396.608 137.982C395.173 137.059 393.835 137.678 393.822 137.686C393.638 137.782 393.394 137.698 393.312 137.499C393.23 137.3 393.326 137.062 393.525 136.967C393.596 136.933 395.271 136.156 397.052 137.301C397.23 137.417 397.274 137.661 397.152 137.849C397.101 137.925 397.03 137.981 396.953 138.013Z" fill="#263238"/>
<path d="M385.204 135.782C385.15 135.767 385.098 135.739 385.055 135.696C384.902 135.551 384.902 135.299 385.055 135.134C386.583 133.485 388.353 133.736 388.427 133.748C388.635 133.771 388.774 133.982 388.729 134.2C388.684 134.417 388.478 134.567 388.268 134.536C388.209 134.527 386.828 134.347 385.608 135.663C385.499 135.781 385.341 135.823 385.204 135.782Z" fill="#263238"/>
<path d="M426.365 181.47L414.984 178.375C414.984 178.375 403.825 206.445 399.883 208.278C394.52 210.772 380.939 219.399 375.167 223.559C374.846 224.95 375.098 228.657 375.824 229.666C385.638 227.844 404.52 220.426 408.457 216.655C417.434 208.059 426.365 181.47 426.365 181.47Z" fill="#E58A7B"/>
<path d="M418.423 458.265C417.797 458.265 417.217 458.155 416.862 457.837C416.581 457.583 416.466 457.227 416.52 456.782C416.559 456.45 416.74 456.293 416.886 456.219C417.815 455.743 420.385 457.408 420.675 457.601C420.738 457.644 420.769 457.724 420.753 457.803C420.735 457.881 420.674 457.945 420.596 457.963C420.015 458.104 419.185 458.265 418.423 458.265ZM417.3 456.523C417.198 456.523 417.112 456.539 417.044 456.573C416.99 456.601 416.926 456.653 416.908 456.807C416.87 457.124 416.942 457.361 417.131 457.531C417.559 457.919 418.631 457.971 420.047 457.682C419.148 457.132 417.931 456.523 417.3 456.523Z" fill="#407BFF"/>
<path d="M420.55 457.969C420.518 457.969 420.487 457.961 420.458 457.945C419.632 457.471 418.091 455.628 418.32 454.688C418.36 454.519 418.5 454.224 418.97 454.166C419.278 454.127 419.55 454.214 419.787 454.421C420.698 455.221 420.755 457.65 420.757 457.753C420.759 457.826 420.721 457.896 420.658 457.935C420.625 457.957 420.587 457.969 420.55 457.969ZM419.084 454.557C419.056 454.557 419.026 454.56 418.996 454.563C418.741 454.595 418.711 454.714 418.699 454.764C418.563 455.319 419.534 456.713 420.343 457.371C420.288 456.661 420.106 455.244 419.523 454.732C419.388 454.614 419.245 454.557 419.084 454.557Z" fill="#407BFF"/>
<path d="M389.373 456.874C388.568 457.073 387.8 457.132 387.31 456.861C386.998 456.688 386.819 456.4 386.777 456.008C386.752 455.773 386.83 455.568 386.999 455.415C387.881 454.613 391.45 455.475 391.855 455.576C391.933 455.596 391.989 455.665 391.992 455.75C391.996 455.835 391.948 455.915 391.87 455.952C391.208 456.258 390.267 456.653 389.373 456.874ZM387.595 455.546C387.445 455.583 387.327 455.635 387.249 455.706C387.18 455.768 387.155 455.84 387.166 455.943C387.194 456.209 387.308 456.394 387.511 456.508C388.092 456.832 389.441 456.576 391.177 455.833C389.958 455.572 388.363 455.355 387.595 455.546Z" fill="#407BFF"/>
<path d="M391.834 455.963C391.806 455.97 391.779 455.97 391.752 455.966C390.692 455.765 388.427 454.479 388.406 453.517C388.401 453.292 388.505 452.983 389.023 452.8C389.4 452.656 389.787 452.685 390.15 452.867C391.339 453.466 391.961 455.613 391.987 455.703C392.005 455.771 391.988 455.844 391.94 455.899C391.91 455.932 391.873 455.953 391.834 455.963ZM389.246 453.139C389.209 453.148 389.171 453.161 389.132 453.173C388.792 453.295 388.796 453.437 388.796 453.484C388.809 454.061 390.381 455.123 391.491 455.481C391.27 454.864 390.739 453.618 389.96 453.226C389.726 453.107 389.49 453.078 389.246 453.139Z" fill="#407BFF"/>
<path d="M376.093 222.898L364.685 228.264L363.361 231.554L367.578 234.452C367.578 234.452 375.446 233.577 377.687 228.411L376.093 222.898Z" fill="#E58A7B"/>
<path d="M376.579 229.856C375.866 225.525 374.472 223.55 374.459 223.531L376.257 222.152C376.327 222.247 377.98 224.528 378.796 229.475L376.579 229.856Z" fill="#263238"/>
<path d="M378.522 224.484C378.892 225.42 378.298 226.547 377.194 227.003C376.09 227.459 374.896 227.07 374.527 226.135C374.157 225.199 374.751 224.072 375.855 223.616C376.957 223.161 378.152 223.549 378.522 224.484Z" fill="#263238"/>
<path d="M356.977 232.598L358.492 234.166L368.728 229.692L364.685 228.265L356.977 232.598Z" fill="#E58A7B"/>
<path opacity="0.2" d="M400.94 436.943C401.001 436.918 402.498 441.223 402.498 441.223L387.353 447.722L384.967 443.189L400.94 436.943Z" fill="black"/>
<path opacity="0.2" d="M431.89 442.367C431.954 442.367 432.394 446.676 432.394 446.676H415.812L414.628 441.729L431.89 442.367Z" fill="black"/>
<path d="M429.331 178.253C432.34 188.166 420.622 201.708 420.622 201.708L404.379 194.933C404.379 194.933 406.667 187.731 411.023 178.082C415.974 167.115 426.293 168.248 429.331 178.253Z" fill="#407BFF"/>
<path opacity="0.2" d="M429.331 178.253C432.34 188.166 420.622 201.708 420.622 201.708L404.379 194.933C404.379 194.933 406.667 187.731 411.023 178.082C415.974 167.115 426.293 168.248 429.331 178.253Z" fill="black"/>
<path d="M267.892 78.8972H260.905V80.0465H267.892V78.8972Z" fill="#407BFF"/>
<path d="M358.397 124.467L357.552 143.651L358.674 143.703L359.52 124.519L358.397 124.467Z" fill="#407BFF"/>
<path d="M356.221 84.0669H227.13L215.112 358.781H344.203L356.221 84.0669Z" fill="#407BFF"/>
<path opacity="0.56" d="M352.366 87.8367H223.276L211.259 362.551H340.35L352.366 87.8367Z" fill="#FAFAFA"/>
<path opacity="0.07" d="M348.512 91.6067H219.422L207.405 366.321H336.496L348.512 91.6067Z" fill="#407BFF"/>
<path d="M333.819 211.42H223.634L222.714 232.446H332.9L333.819 211.42Z" fill="white"/>
<path d="M284.237 196.086H224.305L223.894 205.493H283.825L284.237 196.086Z" fill="#407BFF"/>
<path d="M331.337 268.151H221.152L220.232 289.176H330.417L331.337 268.151Z" fill="white"/>
<path opacity="0.47" d="M311.131 317.552H237.036L235.934 342.751H310.029L311.131 317.552Z" fill="#407BFF"/>
<path d="M306.175 346.654H232.081C232.046 346.654 232.012 346.638 231.987 346.612C231.963 346.587 231.95 346.551 231.952 346.515L233.055 321.316C233.057 321.245 233.115 321.189 233.184 321.189H307.278C307.313 321.189 307.347 321.205 307.372 321.23C307.396 321.256 307.409 321.292 307.407 321.328L306.304 346.526C306.302 346.598 306.244 346.654 306.175 346.654ZM232.217 346.388H306.051L307.14 321.455H233.306L232.217 346.388Z" fill="white"/>
<path d="M271.288 252.818H221.823L221.411 262.225H270.875L271.288 252.818Z" fill="#407BFF"/>
<path d="M309.718 143.528C309.442 149.823 307.209 155.637 303.63 160.359C298.224 167.517 289.758 172.17 280.438 172.17C271.118 172.17 263.07 167.517 258.291 160.359C255.125 155.637 253.401 149.824 253.677 143.528C254.369 127.708 267.475 114.887 282.944 114.887C298.425 114.886 310.409 127.708 309.718 143.528Z" fill="white"/>
<path d="M312.353 120.881C312.28 122.554 311.687 124.099 310.735 125.353C309.299 127.255 307.05 128.492 304.573 128.492C302.096 128.492 299.958 127.255 298.688 125.353C297.847 124.099 297.388 122.554 297.462 120.881C297.646 116.678 301.129 113.271 305.239 113.271C309.352 113.271 312.537 116.678 312.353 120.881Z" fill="#407BFF"/>
<path d="M235.5 221.933C235.419 223.793 233.876 225.302 232.056 225.302C230.235 225.302 228.825 223.793 228.906 221.933C228.987 220.073 230.53 218.564 232.35 218.564C234.172 218.563 235.582 220.073 235.5 221.933Z" fill="#263238"/>
<path d="M250.255 221.933C250.174 223.793 248.631 225.302 246.811 225.302C244.99 225.302 243.58 223.793 243.661 221.933C243.742 220.073 245.285 218.564 247.105 218.564C248.925 218.564 250.337 220.073 250.255 221.933Z" fill="#263238"/>
<path d="M265.01 221.933C264.929 223.793 263.387 225.302 261.567 225.302C259.746 225.302 258.336 223.793 258.417 221.933C258.498 220.073 260.04 218.564 261.861 218.564C263.681 218.563 265.091 220.073 265.01 221.933Z" fill="#263238"/>
<path d="M233.019 278.664C232.938 280.524 231.395 282.032 229.575 282.032C227.754 282.032 226.344 280.524 226.425 278.664C226.506 276.803 228.049 275.294 229.869 275.294C231.69 275.295 233.1 276.803 233.019 278.664Z" fill="#263238"/>
<path d="M247.773 278.664C247.692 280.524 246.15 282.032 244.329 282.032C242.509 282.032 241.099 280.524 241.18 278.664C241.261 276.803 242.803 275.294 244.624 275.294C246.445 275.295 247.854 276.803 247.773 278.664Z" fill="#263238"/>
<path d="M262.528 278.664C262.447 280.524 260.905 282.032 259.084 282.032C257.264 282.032 255.854 280.524 255.935 278.664C256.016 276.803 257.558 275.294 259.379 275.294C261.199 275.294 262.61 276.803 262.528 278.664Z" fill="#263238"/>
<path d="M277.284 278.664C277.203 280.524 275.661 282.032 273.84 282.032C272.02 282.032 270.61 280.524 270.691 278.664C270.772 276.803 272.314 275.294 274.134 275.294C275.955 275.295 277.365 276.803 277.284 278.664Z" fill="#263238"/>
<path d="M292.039 278.664C291.958 280.524 290.415 282.032 288.595 282.032C286.774 282.032 285.364 280.524 285.445 278.664C285.526 276.803 287.069 275.294 288.889 275.294C290.71 275.295 292.12 276.803 292.039 278.664Z" fill="#263238"/>
<path d="M293.45 133.954C293.17 140.351 287.869 145.538 281.608 145.538C275.348 145.538 270.499 140.351 270.779 133.954C271.059 127.556 276.361 122.371 282.622 122.371C288.882 122.371 293.73 127.557 293.45 133.954Z" fill="#407BFF"/>
<path d="M303.63 160.358C298.224 167.515 289.758 172.169 280.438 172.169C271.118 172.169 263.07 167.515 258.291 160.358C263.609 154.947 272.026 151.432 281.346 151.432C290.676 151.432 298.785 154.947 303.63 160.358Z" fill="#407BFF"/>
<path opacity="0.1" d="M293.45 133.954C293.17 140.351 287.869 145.538 281.608 145.538C275.348 145.538 270.499 140.351 270.779 133.954C271.059 127.556 276.361 122.371 282.622 122.371C288.882 122.371 293.73 127.557 293.45 133.954Z" fill="white"/>
<path opacity="0.1" d="M303.63 160.358C298.224 167.515 289.758 172.169 280.438 172.169C271.118 172.169 263.07 167.515 258.291 160.358C263.609 154.947 272.026 151.432 281.346 151.432C290.676 151.432 298.785 154.947 303.63 160.358Z" fill="white"/>
<path d="M142.665 237.511C141.629 239.833 140.538 242.388 139.581 244.88C138.616 247.396 137.654 249.913 136.814 252.467C135.184 257.574 133.656 262.728 132.903 267.896L132.654 269.542C132.634 269.74 132.649 270.022 132.734 270.375C132.894 271.085 133.327 272.035 133.936 272.968C135.168 274.854 136.914 276.763 138.797 278.536C140.675 280.337 142.716 282.06 144.836 283.696C146.935 285.346 149.149 286.962 151.315 288.475L149.276 292.398C144.071 290.073 139.223 287.292 134.528 283.803C132.22 282.005 129.94 280.07 127.92 277.454C126.925 276.135 125.946 274.645 125.305 272.677C124.994 271.695 124.777 270.585 124.776 269.384C124.784 269.108 124.798 268.72 124.817 268.535L124.87 267.979L124.98 266.868C125.575 260.941 126.859 255.245 128.552 249.72C129.405 246.961 130.315 244.229 131.354 241.55C132.416 238.852 133.462 236.262 134.79 233.547L142.665 237.511Z" fill="#E58A7B"/>
<path d="M149.784 287.809L157.514 283.801L155.517 292.483C155.517 292.483 150.209 293.998 147.74 291.366L149.784 287.809Z" fill="#E58A7B"/>
<path d="M164.593 285.226L162.537 292.404L155.516 292.484L157.514 283.801L164.593 285.226Z" fill="#E58A7B"/>
<path d="M175.512 195.651C175.512 195.651 176.183 198.171 177.246 200.071C176.333 200.943 175.512 200.64 175.512 200.64V195.651Z" fill="#DF5753"/>
<path d="M175.284 195.717C175.737 195.717 176.103 195.143 176.103 194.436C176.103 193.728 175.737 193.155 175.284 193.155C174.831 193.155 174.465 193.728 174.465 194.436C174.465 195.143 174.831 195.717 175.284 195.717Z" fill="#263238"/>
<path d="M175.084 193.194L176.747 192.704C176.747 192.704 175.893 194.032 175.084 193.194Z" fill="#263238"/>
<path d="M154.141 203.852C155.14 209.056 156.137 218.592 152.573 222.065C152.573 222.065 153.965 227.344 163.428 227.344C173.834 227.344 168.402 222.065 168.402 222.065C162.723 220.679 162.869 216.373 163.858 212.329L154.141 203.852Z" fill="#E58A7B"/>
<path d="M151.38 192.008C151.902 200.697 151.941 204.385 156.236 208.845C162.695 215.553 173.024 212.997 175.053 204.325C176.879 196.518 175.718 183.62 167.396 180.162C159.196 176.756 150.857 183.318 151.38 192.008Z" fill="#E58A7B"/>
<path d="M152.218 182.176C147.955 183.764 142.267 182.583 144.499 196.031C146.862 210.271 143.224 214.955 143.224 214.955C143.224 214.955 159.407 218.478 175.926 214.745C175.926 214.745 170.883 205.732 172.298 199.155C174.103 190.766 172.672 187.666 172.672 187.666C172.672 187.666 158.213 179.942 152.218 182.176Z" fill="#263238"/>
<path d="M170.27 196.535C170.253 198.257 170.843 199.991 171.609 201.195C172.761 203.007 174.129 202.27 174.471 200.388C174.78 198.695 174.551 195.712 173.075 194.555C171.622 193.417 170.291 194.568 170.27 196.535Z" fill="#E58A7B"/>
<path d="M148.515 183.697C147.284 180.181 153.13 174.774 165.49 177.023C177.851 179.272 178.393 189.777 178.393 189.777L175.892 186.744L176.005 189.938L163.302 192.432L148.515 183.697Z" fill="#263238"/>
<path d="M149.563 222.656C149.392 221.582 150.099 220.57 151.149 220.393C154.998 219.744 163.746 218.429 168.149 219.052C171.42 219.515 172.285 221.467 172.423 223.063C172.526 224.247 171.568 225.246 170.406 225.192L151.382 224.313C150.469 224.271 149.709 223.58 149.563 222.656Z" fill="#407BFF"/>
<path opacity="0.6" d="M149.563 222.656C149.392 221.582 150.099 220.57 151.149 220.393C154.998 219.744 163.746 218.429 168.149 219.052C171.42 219.515 172.285 221.467 172.423 223.063C172.526 224.247 171.568 225.246 170.406 225.192L151.382 224.313C150.469 224.271 149.709 223.58 149.563 222.656Z" fill="black"/>
<path d="M160.555 417.978L167.606 422.98L179.413 406.628L172.362 401.626L160.555 417.978Z" fill="#E58A7B"/>
<path d="M144.096 417.647L151.555 421.988L162.004 404.694L154.546 400.354L144.096 417.647Z" fill="#E58A7B"/>
<path d="M179.407 406.631L173.324 415.061L166.271 410.057L172.354 401.627L179.407 406.631Z" fill="#CF6F64"/>
<path d="M154.542 400.357L162.003 404.699L156.613 413.612L149.152 409.27L154.542 400.357Z" fill="#CF6F64"/>
<path d="M166.504 277.25C166.504 277.25 194.051 312.73 188.883 346.658C184.709 374.063 160.534 411.17 160.534 411.17L149.168 405.397C149.168 405.397 161.518 380.736 169.628 354.594C173.029 343.631 171.58 331.553 165.221 322.063C151.267 301.235 128.911 313.628 143.949 277.252L166.504 277.25Z" fill="#407BFF"/>
<path opacity="0.6" d="M166.504 277.25C166.504 277.25 194.051 312.73 188.883 346.658C184.709 374.063 160.534 411.17 160.534 411.17L149.168 405.397C149.168 405.397 161.518 380.736 169.628 354.594C173.029 343.631 171.58 331.553 165.221 322.063C151.267 301.235 128.911 313.628 143.949 277.252L166.504 277.25Z" fill="black"/>
<path opacity="0.4" d="M180.016 300.049L176.015 295.981C176.015 296.303 183.772 345.234 185.953 358.985C187.268 354.769 188.279 350.61 188.887 346.658C191.416 330.046 186.098 313.054 180.016 300.049Z" fill="black"/>
<path d="M178.808 277.251C178.808 277.251 211.977 321.836 212.91 348.573C213.692 370.976 176.781 414.25 176.781 414.25L166.065 407.166C166.065 407.166 187.648 376.402 193.082 351.253C191.01 326.361 146.541 277.25 146.541 277.25H178.808V277.251Z" fill="#407BFF"/>
<path opacity="0.6" d="M178.808 277.251C178.808 277.251 211.977 321.836 212.91 348.573C213.692 370.976 176.781 414.25 176.781 414.25L166.065 407.166C166.065 407.166 187.648 376.402 193.082 351.253C191.01 326.361 146.541 277.25 146.541 277.25H178.808V277.251Z" fill="black"/>
<path d="M137.771 224.058C134.218 224.915 130.824 238.093 130.824 238.093L144.677 247.543C144.677 247.543 149.294 237.128 147.682 232.565C146.003 227.814 142.256 222.977 137.771 224.058Z" fill="#407BFF"/>
<path opacity="0.2" d="M140.482 232.537L139.513 244.018L144.671 247.545C144.671 247.545 147.087 242.088 147.807 237.332L140.482 232.537Z" fill="black"/>
<path d="M182.909 224.312C182.909 224.312 186.997 225.783 178.808 277.25C164.975 277.25 150.68 277.25 143.95 277.25C144.535 262.752 144.551 253.812 137.771 224.058C137.771 224.058 145.074 222.435 152.573 222.065C158.439 221.776 163.245 221.584 168.402 222.066C175.2 222.7 182.909 224.312 182.909 224.312Z" fill="#407BFF"/>
<path d="M186.449 232.485C187.239 234.715 188.075 237.128 188.945 239.444C189.779 241.795 190.646 244.142 191.54 246.479L194.222 253.501L194.9 255.256L195.241 256.134L195.411 256.572C195.441 256.65 195.435 256.644 195.424 256.636C195.377 256.614 195.337 256.393 194.659 255.938C194.326 255.727 193.768 255.523 193.23 255.512C192.688 255.492 192.26 255.627 192.013 255.737C191.52 255.977 191.512 256.081 191.523 256.064C191.555 256.048 191.657 255.948 191.768 255.811C192.246 255.224 192.824 254.212 193.331 253.206C193.848 252.18 194.337 251.085 194.824 249.974C195.792 247.745 196.673 245.42 197.569 243.091C198.455 240.756 199.29 238.385 200.117 236.009L202.607 228.874L206.822 229.959C205.988 235.063 204.909 240.061 203.624 245.078C202.996 247.591 202.27 250.083 201.439 252.599C201.026 253.859 200.563 255.115 200.031 256.396C199.479 257.688 198.931 258.961 197.953 260.44C197.696 260.815 197.405 261.211 196.999 261.647C196.57 262.076 196.074 262.595 195.005 263.085C194.474 263.319 193.734 263.526 192.881 263.491C192.031 263.467 191.169 263.158 190.573 262.78C189.36 261.989 188.941 261.235 188.583 260.669C188.416 260.385 188.274 260.093 188.176 259.881L187.968 259.447L187.552 258.58L186.725 256.844C185.644 254.517 184.585 252.178 183.582 249.814C182.589 247.444 181.62 245.06 180.682 242.658C179.784 240.22 178.895 237.858 178.104 235.264L186.449 232.485Z" fill="#E58A7B"/>
<path d="M182.909 224.312C187.099 225.332 191.807 237.983 191.807 237.983L179.355 248.826C179.355 248.826 171.284 235.031 172.918 230.477C174.618 225.733 177.436 222.979 182.909 224.312Z" fill="#407BFF"/>
<path d="M204.552 224.929L208.922 221.194L211.962 226.034L209.723 230.075C209.723 230.075 206.157 233.412 202.999 231.714C201.98 229.352 202.613 226.586 204.552 224.929Z" fill="#E58A7B"/>
<path d="M216.855 221.205L216.528 222.423L209.604 223.611L208.921 221.194L216.855 221.205Z" fill="#E58A7B"/>
<path d="M177.668 414.837L165.175 406.58L167.413 402.604L181.452 411.424L177.668 414.837Z" fill="#407BFF"/>
<path d="M156.423 421.403C155.43 421.403 154.123 420.759 153.331 420.31C153.259 420.27 153.219 420.19 153.228 420.106C153.235 420.025 153.291 419.955 153.368 419.929C153.705 419.82 156.668 418.892 157.507 419.612C157.64 419.726 157.788 419.936 157.74 420.286C157.679 420.75 157.471 421.078 157.123 421.255C156.922 421.357 156.684 421.403 156.423 421.403ZM153.963 420.184C155.322 420.89 156.416 421.151 156.942 420.883C157.166 420.769 157.295 420.556 157.339 420.231C157.362 420.055 157.302 419.978 157.246 419.931C156.805 419.552 155.162 419.847 153.963 420.184Z" fill="#263238"/>
<path d="M153.43 420.334C153.376 420.334 153.323 420.312 153.285 420.272C153.234 420.218 153.216 420.142 153.235 420.07C153.264 419.968 153.947 417.539 155.07 416.986C155.37 416.839 155.674 416.832 155.972 416.958C156.444 417.161 156.491 417.515 156.475 417.706C156.398 418.711 154.393 420.099 153.478 420.328C153.463 420.332 153.447 420.334 153.43 420.334ZM155.55 417.285C155.45 417.285 155.348 417.311 155.245 417.361C154.576 417.691 154.013 419.002 153.744 419.799C154.707 419.385 156.021 418.287 156.068 417.675C156.076 417.575 156.054 417.445 155.812 417.342C155.725 417.304 155.638 417.285 155.55 417.285Z" fill="#263238"/>
<path d="M172.051 426.234C170.819 426.234 169.102 424.616 168.162 423.623C168.102 423.559 168.087 423.464 168.126 423.384C168.165 423.306 168.264 423.261 168.334 423.271C168.767 423.328 172.572 423.854 173.109 424.952C173.212 425.164 173.203 425.39 173.084 425.606C172.882 425.968 172.59 426.176 172.217 426.224C172.164 426.231 172.108 426.234 172.051 426.234ZM168.882 423.772C170.265 425.145 171.472 425.905 172.167 425.81C172.41 425.779 172.594 425.646 172.73 425.4C172.783 425.306 172.787 425.223 172.745 425.137C172.453 424.54 170.421 424.025 168.882 423.772Z" fill="#263238"/>
<path d="M169.002 423.738C168.721 423.738 168.469 423.72 168.271 423.682C168.201 423.668 168.142 423.618 168.117 423.55C168.093 423.48 168.105 423.402 168.151 423.345C168.213 423.268 169.694 421.445 171.092 421.319C171.529 421.285 171.9 421.403 172.217 421.68C172.647 422.057 172.618 422.393 172.517 422.607C172.17 423.352 170.28 423.738 169.002 423.738ZM168.72 423.318C169.942 423.388 171.896 422.973 172.151 422.428C172.173 422.383 172.237 422.244 171.954 421.997C171.717 421.79 171.444 421.704 171.128 421.733C170.21 421.816 169.185 422.811 168.72 423.318Z" fill="#263238"/>
<path d="M153.73 419.158L144.451 416.477C144.113 416.38 143.772 416.54 143.632 416.863L140.5 424.06C140.175 424.806 140.626 425.732 141.409 425.943C144.66 426.821 146.272 427.077 150.353 428.256C152.863 428.982 156.457 430.308 159.924 431.309C163.314 432.288 164.544 428.86 163.189 428.126C157.109 424.833 156.63 422.576 154.967 420.075C154.667 419.624 154.224 419.301 153.73 419.158Z" fill="#407BFF"/>
<path d="M168.415 422.317L160.494 416.696C160.205 416.492 159.833 416.531 159.597 416.789L154.344 422.554C153.799 423.152 153.931 424.177 154.604 424.636C157.398 426.547 158.842 427.325 162.325 429.797C164.469 431.318 168.746 434.689 171.705 436.789C174.6 438.843 176.854 436.01 175.806 434.865C171.106 429.731 170.069 426.513 169.293 423.594C169.152 423.069 168.836 422.615 168.415 422.317Z" fill="#407BFF"/>
<path d="M161.994 411.911L147.71 404.657L149.189 400.707L164.435 408.344L161.994 411.911Z" fill="#407BFF"/>
<path d="M143.428 275.16L142.219 278.348C142.096 278.595 142.383 278.848 142.787 278.848H178.979C179.293 278.848 179.554 278.69 179.573 278.489L179.887 275.301C179.909 275.079 179.637 274.893 179.293 274.893H143.994C143.736 274.893 143.506 275.001 143.428 275.16Z" fill="#407BFF"/>
<path opacity="0.4" d="M143.428 275.16L142.219 278.348C142.096 278.595 142.383 278.848 142.787 278.848H178.979C179.293 278.848 179.554 278.69 179.573 278.489L179.887 275.301C179.909 275.079 179.637 274.893 179.293 274.893H143.994C143.736 274.893 143.506 275.001 143.428 275.16Z" fill="white"/>
<path d="M149.12 279.194H148.175C147.986 279.194 147.843 279.094 147.856 278.973L148.299 274.831C148.313 274.71 148.477 274.611 148.666 274.611H149.611C149.799 274.611 149.943 274.71 149.929 274.831L149.486 278.973C149.473 279.095 149.308 279.194 149.12 279.194Z" fill="#407BFF"/>
<path d="M171.445 279.194H170.5C170.312 279.194 170.168 279.094 170.181 278.973L170.625 274.831C170.638 274.71 170.802 274.611 170.991 274.611H171.936C172.124 274.611 172.268 274.71 172.255 274.831L171.812 278.973C171.798 279.095 171.633 279.194 171.445 279.194Z" fill="#407BFF"/>
<path d="M148.287 468.539C164.474 468.539 177.597 467.566 177.597 466.366C177.597 465.165 164.474 464.192 148.287 464.192C132.1 464.192 118.978 465.165 118.978 466.366C118.978 467.566 132.1 468.539 148.287 468.539Z" fill="#F5F5F5"/>
<path d="M166.149 463.299C160.964 461.761 155.256 459.778 151.725 457.671C151.626 457.613 151.522 457.57 151.423 457.517V433.559H161.853C163.578 433.559 164.976 432.13 164.976 430.367C164.976 428.605 163.578 427.176 161.853 427.176H151.423V317.81H145.177V427.176H134.747C133.023 427.176 131.625 428.605 131.625 430.367C131.625 432.13 133.023 433.559 134.747 433.559H145.177V457.516C145.078 457.569 144.974 457.611 144.875 457.67C141.344 459.777 135.636 461.76 130.451 463.298C128.75 463.802 129.108 466.363 130.88 466.363H148.299H165.719C167.491 466.365 167.85 463.803 166.149 463.299Z" fill="#E0E0E0"/>
<path d="M167.754 330.086H128.846C125.729 330.086 123.179 327.48 123.179 324.295V312.474C123.179 309.289 125.729 306.683 128.846 306.683H167.754C170.871 306.683 173.421 309.289 173.421 312.474V324.295C173.421 327.48 170.871 330.086 167.754 330.086Z" fill="#407BFF"/>
<path d="M128.488 330.086V332.121C128.488 333.798 130.275 335.171 132.457 335.171H164.143C166.325 335.171 168.112 333.799 168.112 332.121V330.086H128.488Z" fill="#407BFF"/>
<path opacity="0.3" d="M128.488 330.086V332.121C128.488 333.798 130.275 335.171 132.457 335.171H164.143C166.325 335.171 168.112 333.799 168.112 332.121V330.086H128.488Z" fill="white"/>
</svg>
